<svg width="24" height="24" viewBox="0 0 24 24" fill="none" xmlns="http://www.w3.org/2000/svg">
    <g clip-path="url(#clip0_9_629)">
        <mask id="mask0_9_629" style="mask-type:luminance" maskUnits="userSpaceOnUse" x="0" y="0"
            width="24" height="24">
            <path d="M24 0H0V24H24V0Z" fill="white" />
        </mask>
        <g mask="url(#mask0_9_629)">
            <path
                d="M19.3701 4.88914L13.5101 2.27914C12.6501 1.89914 11.3501 1.89914 10.4901 2.27914L4.63018 4.88914C3.15018 5.54914 2.93018 6.44914 2.93018 6.92914C2.93018 7.40914 3.15018 8.30914 4.63018 8.96914L10.4901 11.5791C10.9201 11.7691 11.4601 11.8691 12.0001 11.8691C12.5401 11.8691 13.0801 11.7691 13.5101 11.5791L19.3701 8.96914C20.8501 8.30914 21.0701 7.40914 21.0701 6.92914C21.0701 6.44914 20.8601 5.54914 19.3701 4.88914Z"
                fill="#0284C7" />
            <path
                d="M12.0003 17.04C11.6203 17.04 11.2403 16.96 10.8903 16.81L4.15031 13.81C3.12031 13.35 2.32031 12.12 2.32031 10.99C2.32031 10.58 2.65031 10.25 3.06031 10.25C3.47031 10.25 3.80031 10.58 3.80031 10.99C3.80031 11.53 4.25031 12.23 4.75031 12.45L11.4903 15.45C11.8103 15.59 12.1803 15.59 12.5003 15.45L19.2403 12.45C19.7403 12.23 20.1903 11.54 20.1903 10.99C20.1903 10.58 20.5203 10.25 20.9303 10.25C21.3403 10.25 21.6703 10.58 21.6703 10.99C21.6703 12.11 20.8703 13.35 19.8403 13.81L13.1003 16.81C12.7603 16.96 12.3803 17.04 12.0003 17.04Z"
                fill="#0284C7" />
            <path
                d="M12.0003 22.0009C11.6203 22.0009 11.2403 21.9209 10.8903 21.7709L4.15031 18.7709C3.04031 18.2809 2.32031 17.1709 2.32031 15.9509C2.32031 15.5409 2.65031 15.2109 3.06031 15.2109C3.47031 15.2109 3.80031 15.5409 3.80031 15.9509C3.80031 16.5809 4.17031 17.1509 4.75031 17.4109L11.4903 20.4109C11.8103 20.5509 12.1803 20.5509 12.5003 20.4109L19.2403 17.4109C19.8103 17.1609 20.1903 16.5809 20.1903 15.9509C20.1903 15.5409 20.5203 15.2109 20.9303 15.2109C21.3403 15.2109 21.6703 15.5409 21.6703 15.9509C21.6703 17.1709 20.9503 18.2709 19.8403 18.7709L13.1003 21.7709C12.7603 21.9209 12.3803 22.0009 12.0003 22.0009Z"
                fill="#0284C7" />
        </g>
    </g>
    <defs>
        <clipPath id="clip0_9_629">
            <rect width="24" height="24" fill="white" />
        </clipPath>
    </defs>
</svg>